<?xml version="1.0" encoding="UTF-8"?>
<!DOCTYPE svg PUBLIC "-//W3C//DTD SVG 1.1//EN" "http://www.w3.org/Graphics/SVG/1.1/DTD/svg11.dtd">
<svg version="1.1" xmlns="http://www.w3.org/2000/svg" xmlns:xlink="http://www.w3.org/1999/xlink" x="0" y="0" width="357" height="124" viewBox="0, 0, 357, 124">
  <defs>
    <linearGradient id="Gradient_1" gradientUnits="userSpaceOnUse" x1="681.512" y1="384.144" x2="681.703" y2="384.144" gradientTransform="matrix(468, 0, 0, -468, -318939.125, 179840.109)">
      <stop offset="0" stop-color="#3A008F"/>
      <stop offset="0" stop-color="#3A008F"/>
      <stop offset="1" stop-color="#280068"/>
    </linearGradient>
    <linearGradient id="Gradient_2" gradientUnits="userSpaceOnUse" x1="31.202" y1="53.541" x2="69.642" y2="90.833">
      <stop offset="0" stop-color="#786DC8"/>
      <stop offset="1" stop-color="#6349B1"/>
    </linearGradient>
    <linearGradient id="Gradient_3" gradientUnits="userSpaceOnUse" x1="54.032" y1="77.243" x2="54.032" y2="57.053">
      <stop offset="0" stop-color="#3200A3"/>
      <stop offset="1" stop-color="#260068"/>
    </linearGradient>
  </defs>
  <g id="Layer_1">
    <g id="korge">
      <g>
        <g>
          <path d="M96.126,101.06 C96.126,102.322 95.094,103.354 93.832,103.354 L12.752,103.354 C11.49,103.354 10.457,102.322 10.457,101.06 L10.457,19.98 C10.457,18.718 11.49,17.685 12.752,17.685 L93.832,17.685 C95.094,17.685 96.126,18.718 96.126,19.98 L96.126,101.06 z" fill="#FFFFFF"/>
          <path d="M96.126,101.06 L97.943,101.06 C97.943,103.335 96.107,105.171 93.832,105.171 L12.752,105.171 C10.476,105.171 8.641,103.335 8.641,101.06 L8.641,19.98 C8.641,17.704 10.495,15.868 12.752,15.868 L93.832,15.868 C96.107,15.868 97.943,17.704 97.943,19.98 L97.943,101.06 L96.126,101.06 L94.31,101.06 L94.31,19.98 C94.31,19.712 94.099,19.502 93.832,19.502 L12.752,19.502 C12.484,19.502 12.274,19.712 12.274,19.98 L12.274,101.06 C12.274,101.327 12.484,101.538 12.752,101.538 L93.832,101.538 C94.099,101.538 94.31,101.327 94.31,101.06 L96.126,101.06 z" fill="url(#Gradient_1)"/>
        </g>
        <g>
          <path d="M17.224,23.02 L20.704,23.02 L20.704,29.904 L20.781,29.904 C21.125,29.312 21.488,28.757 21.851,28.203 L25.389,23.039 L29.711,23.039 L24.567,29.675 L29.998,38.605 L25.886,38.605 L22.081,31.893 L20.742,33.538 L20.742,38.624 L17.224,38.624 L17.224,23.02 z" fill="#280068"/>
          <path d="M45.088,30.631 C45.088,35.737 41.99,38.835 37.439,38.835 C32.812,38.835 30.115,35.354 30.115,30.918 C30.115,26.252 33.098,22.772 37.688,22.772 C42.468,22.753 45.088,26.348 45.088,30.631 z M33.844,30.841 C33.844,33.882 35.278,36.043 37.63,36.043 C40.002,36.043 41.378,33.786 41.378,30.746 C41.378,27.954 40.04,25.544 37.611,25.544 C35.221,25.564 33.844,27.82 33.844,30.841 z" fill="#280068"/>
          <path d="M47.402,23.231 C48.53,23.039 50.213,22.906 52.087,22.906 C54.401,22.906 56.007,23.25 57.116,24.129 C58.034,24.875 58.551,25.946 58.551,27.38 C58.551,29.369 57.135,30.727 55.797,31.205 L55.797,31.281 C56.887,31.721 57.48,32.754 57.881,34.188 C58.359,35.947 58.857,37.974 59.143,38.567 L55.548,38.567 C55.3,38.127 54.917,36.865 54.458,34.934 C54.038,33.002 53.368,32.467 51.934,32.448 L50.863,32.448 L50.863,38.567 L47.383,38.567 L47.383,23.231 z M50.882,29.924 L52.259,29.924 C54.018,29.924 55.051,29.044 55.051,27.686 C55.051,26.252 54.076,25.544 52.47,25.506 C51.609,25.506 51.131,25.583 50.882,25.621 L50.882,29.924 z" fill="#280068"/>
        </g>
      </g>
      <path d="M31.129,47.057 C24.225,47.535 19.426,55.376 19.426,56.925 C17.15,69.871 15.238,80.484 14.932,83.295 C14.683,92.091 19.426,94.902 23.594,94.73 C24.589,94.692 24.225,94.673 23.786,94.673 C33.729,94.673 34.666,87.578 40.097,78.533 C47.306,78.457 55.644,78.533 65.435,78.533 C70.866,87.578 71.783,94.673 81.708,94.673 C81.268,94.673 80.905,94.692 81.899,94.73 C86.049,94.902 90.81,92.072 90.562,83.295 C90.237,80.484 88.324,69.871 86.068,56.925 C86.068,55.337 80.943,47.057 73.696,47.057 C72.663,47.057 74.021,47.057 72.376,47.057 C64.536,47.057 60.884,51.456 60.884,52.431 C55.472,52.373 49.812,52.431 44.629,52.431 C44.629,51.475 40.977,47.057 33.137,47.057 C31.492,47.057 32.85,47.057 31.817,47.057 C31.588,47.057 31.358,47.038 31.129,47.057 L31.129,47.057 z" fill="url(#Gradient_2)" id="path5608"/>
      <path d="M37.841,57.288 L37.841,60.405 C35.565,59.353 33.443,58.837 31.473,58.837 C29.197,58.837 27.304,59.678 25.832,61.342 C24.359,63.025 23.614,65.147 23.614,67.748 C23.614,70.349 24.436,72.49 26.099,74.154 C27.763,75.818 29.886,76.659 32.467,76.659 C33.06,76.659 33.806,76.583 34.705,76.449 L34.705,70.616 L30.555,70.616 L30.555,68.073 L38.089,68.073 L38.089,78.323 C35.776,79.05 33.596,79.432 31.53,79.432 C28.107,79.432 25.335,78.38 23.193,76.258 C21.089,74.135 20.019,71.362 20.019,67.978 C20.019,64.497 21.089,61.686 23.212,59.525 C25.354,57.364 28.126,56.294 31.569,56.294 C33.519,56.294 35.623,56.619 37.841,57.288 z" fill="#FFFFFF"/>
      <path d="M69.852,78.418 L69.852,57.173 L84.213,57.173 L84.213,59.621 L73.122,59.621 L73.122,66.065 L82.53,66.065 L82.53,68.513 L73.122,68.513 L73.122,75.971 L84.978,75.971 L84.978,78.418 L69.852,78.418 z" fill="#FFFFFF"/>
      <g>
        <path d="M45.206,69.682 C44.326,69.682 43.523,69.682 42.682,69.682 C42.682,71.365 42.682,73.029 42.682,74.711 C41.821,74.711 40.999,74.711 40.177,74.711 C40.177,72.206 40.177,69.682 40.177,67.158 C40.999,67.158 41.821,67.158 42.682,67.158 C42.682,66.298 42.682,65.475 42.682,64.634 C43.542,64.634 44.345,64.634 45.206,64.634 C45.206,63.773 45.206,62.951 45.206,62.11 C46.066,62.11 46.889,62.11 47.711,62.11 C47.711,61.268 47.711,60.446 47.711,59.586 C46.889,59.586 46.066,59.586 45.225,59.586 C45.225,58.725 45.225,57.922 45.225,57.08 C46.047,57.08 46.85,57.08 47.711,57.08 C47.711,57.903 47.711,58.725 47.711,59.566 C48.571,59.566 49.394,59.566 50.235,59.566 C50.235,60.427 50.235,61.249 50.235,62.091 C52.778,62.091 55.283,62.091 57.827,62.091 C57.827,61.268 57.827,60.446 57.827,59.586 C58.687,59.586 59.49,59.586 60.351,59.586 C60.351,58.725 60.351,57.903 60.351,57.061 C61.211,57.061 62.034,57.061 62.856,57.061 C62.856,57.903 62.856,58.725 62.856,59.566 C62.034,59.566 61.211,59.566 60.37,59.566 C60.37,60.408 60.37,61.23 60.37,62.091 C61.192,62.091 62.015,62.091 62.875,62.091 C62.875,62.951 62.875,63.773 62.875,64.615 C63.736,64.615 64.558,64.615 65.399,64.615 C65.399,65.475 65.399,66.298 65.399,67.139 C66.241,67.139 67.063,67.139 67.904,67.139 C67.904,69.682 67.904,72.187 67.904,74.711 C67.082,74.711 66.279,74.711 65.418,74.711 C65.418,73.048 65.418,71.384 65.418,69.701 C64.558,69.701 63.755,69.701 62.894,69.701 C62.894,71.365 62.894,73.029 62.894,74.731 C62.034,74.731 61.231,74.731 60.37,74.731 C60.37,75.591 60.37,76.413 60.37,77.255 C58.668,77.255 57.004,77.255 55.322,77.255 C55.322,76.433 55.322,75.591 55.322,74.75 C57.004,74.75 58.649,74.75 60.332,74.75 C60.332,73.908 60.332,73.086 60.332,72.245 C56.144,72.245 51.956,72.245 47.73,72.245 C47.73,73.067 47.73,73.889 47.73,74.731 C49.394,74.731 51.057,74.731 52.74,74.731 C52.74,75.591 52.74,76.394 52.74,77.236 C51.076,77.236 49.413,77.236 47.711,77.236 C47.711,76.413 47.711,75.591 47.711,74.75 C46.85,74.75 46.047,74.75 45.187,74.75 C45.206,73.048 45.206,71.384 45.206,69.682 z M50.235,64.653 C49.375,64.653 48.552,64.653 47.749,64.653 C47.749,65.494 47.749,66.298 47.749,67.12 C48.59,67.12 49.413,67.12 50.235,67.12 C50.235,66.278 50.235,65.475 50.235,64.653 z M57.846,67.12 C58.687,67.12 59.509,67.12 60.332,67.12 C60.332,66.278 60.332,65.456 60.332,64.634 C59.49,64.634 58.687,64.634 57.846,64.634 C57.846,65.475 57.846,66.278 57.846,67.12 z" fill="url(#Gradient_3)"/>
        <path d="M45.206,69.682 C44.326,69.682 43.523,69.682 42.682,69.682 C42.682,71.365 42.682,73.029 42.682,74.711 C41.821,74.711 40.999,74.711 40.177,74.711 C40.177,72.206 40.177,69.682 40.177,67.158 C40.999,67.158 41.821,67.158 42.682,67.158 C42.682,66.298 42.682,65.475 42.682,64.634 C43.542,64.634 44.345,64.634 45.206,64.634 C45.206,63.773 45.206,62.951 45.206,62.11 C46.066,62.11 46.889,62.11 47.711,62.11 C47.711,61.268 47.711,60.446 47.711,59.586 C46.889,59.586 46.066,59.586 45.225,59.586 C45.225,58.725 45.225,57.922 45.225,57.08 C46.047,57.08 46.85,57.08 47.711,57.08 C47.711,57.903 47.711,58.725 47.711,59.566 C48.571,59.566 49.394,59.566 50.235,59.566 C50.235,60.427 50.235,61.249 50.235,62.091 C52.778,62.091 55.283,62.091 57.827,62.091 C57.827,61.268 57.827,60.446 57.827,59.586 C58.687,59.586 59.49,59.586 60.351,59.586 C60.351,58.725 60.351,57.903 60.351,57.061 C61.211,57.061 62.034,57.061 62.856,57.061 C62.856,57.903 62.856,58.725 62.856,59.566 C62.034,59.566 61.211,59.566 60.37,59.566 C60.37,60.408 60.37,61.23 60.37,62.091 C61.192,62.091 62.015,62.091 62.875,62.091 C62.875,62.951 62.875,63.773 62.875,64.615 C63.736,64.615 64.558,64.615 65.399,64.615 C65.399,65.475 65.399,66.298 65.399,67.139 C66.241,67.139 67.063,67.139 67.904,67.139 C67.904,69.682 67.904,72.187 67.904,74.711 C67.082,74.711 66.279,74.711 65.418,74.711 C65.418,73.048 65.418,71.384 65.418,69.701 C64.558,69.701 63.755,69.701 62.894,69.701 C62.894,71.365 62.894,73.029 62.894,74.731 C62.034,74.731 61.231,74.731 60.37,74.731 C60.37,75.591 60.37,76.413 60.37,77.255 C58.668,77.255 57.004,77.255 55.322,77.255 C55.322,76.433 55.322,75.591 55.322,74.75 C57.004,74.75 58.649,74.75 60.332,74.75 C60.332,73.908 60.332,73.086 60.332,72.245 C56.144,72.245 51.956,72.245 47.73,72.245 C47.73,73.067 47.73,73.889 47.73,74.731 C49.394,74.731 51.057,74.731 52.74,74.731 C52.74,75.591 52.74,76.394 52.74,77.236 C51.076,77.236 49.413,77.236 47.711,77.236 C47.711,76.413 47.711,75.591 47.711,74.75 C46.85,74.75 46.047,74.75 45.187,74.75 C45.206,73.048 45.206,71.384 45.206,69.682 z M50.235,64.653 C49.375,64.653 48.552,64.653 47.749,64.653 C47.749,65.494 47.749,66.298 47.749,67.12 C48.59,67.12 49.413,67.12 50.235,67.12 C50.235,66.278 50.235,65.475 50.235,64.653 z M57.846,67.12 C58.687,67.12 59.509,67.12 60.332,67.12 C60.332,66.278 60.332,65.456 60.332,64.634 C59.49,64.634 58.687,64.634 57.846,64.634 C57.846,65.475 57.846,66.278 57.846,67.12 z" fill-opacity="0" stroke="#6E5BBD" stroke-width="1"/>
      </g>
    </g>
    <path d="M112.2,34.38 L112.2,91.5 L124.76,91.5 L124.76,73.1 L131.96,65.82 L149.16,91.5 L164.92,91.5 L140.44,56.94 L162.76,34.38 L147.08,34.38 L124.76,58.06 L124.76,34.38 z" fill="#FFFFFF"/>
    <path d="M178.84,70.86 Q178.84,68.38 179.32,65.98 Q179.8,63.58 180.96,61.74 Q182.12,59.9 184.04,58.74 Q185.96,57.58 188.84,57.58 Q191.72,57.58 193.68,58.74 Q195.64,59.9 196.8,61.74 Q197.96,63.58 198.44,65.98 Q198.92,68.38 198.92,70.86 Q198.92,73.34 198.44,75.7 Q197.96,78.06 196.8,79.94 Q195.64,81.82 193.68,82.94 Q191.72,84.06 188.84,84.06 Q185.96,84.06 184.04,82.94 Q182.12,81.82 180.96,79.94 Q179.8,78.06 179.32,75.7 Q178.84,73.34 178.84,70.86 z M167.48,70.86 Q167.48,75.82 169,79.82 Q170.52,83.82 173.32,86.66 Q176.12,89.5 180.04,91.02 Q183.96,92.54 188.84,92.54 Q193.72,92.54 197.68,91.02 Q201.64,89.5 204.44,86.66 Q207.24,83.82 208.76,79.82 Q210.28,75.82 210.28,70.86 Q210.28,65.9 208.76,61.86 Q207.24,57.82 204.44,54.98 Q201.64,52.14 197.68,50.58 Q193.72,49.02 188.84,49.02 Q183.96,49.02 180.04,50.58 Q176.12,52.14 173.32,54.98 Q170.52,57.82 169,61.86 Q167.48,65.9 167.48,70.86 z" fill="#FFFFFF"/>
    <path d="M217.64,50.14 L217.64,91.5 L229,91.5 L229,72.86 Q229,70.06 229.56,67.66 Q230.12,65.26 231.44,63.46 Q232.76,61.66 234.92,60.62 Q237.08,59.58 240.2,59.58 Q241.24,59.58 242.36,59.7 Q243.48,59.82 244.28,59.98 L244.28,49.42 Q242.92,49.02 241.8,49.02 Q239.64,49.02 237.64,49.66 Q235.64,50.3 233.88,51.46 Q232.12,52.62 230.76,54.26 Q229.4,55.9 228.6,57.82 L228.44,57.82 L228.44,50.14 z" fill="#FFFFFF"/>
    <path d="M291.24,85.02 L292.52,91.5 L300.52,91.5 L300.52,60.62 L276.52,60.62 L276.52,69.98 L289.16,69.98 Q288.6,75.98 285.2,79.14 Q281.8,82.3 275.56,82.3 Q271.32,82.3 268.36,80.66 Q265.4,79.02 263.56,76.3 Q261.72,73.58 260.88,70.18 Q260.04,66.78 260.04,63.18 Q260.04,59.42 260.88,55.9 Q261.72,52.38 263.56,49.62 Q265.4,46.86 268.36,45.22 Q271.32,43.58 275.56,43.58 Q280.12,43.58 283.32,45.98 Q286.52,48.38 287.64,53.18 L299.64,53.18 Q299.16,48.3 297,44.54 Q294.84,40.78 291.52,38.22 Q288.2,35.66 284.08,34.34 Q279.96,33.02 275.56,33.02 Q269,33.02 263.76,35.34 Q258.52,37.66 254.92,41.74 Q251.32,45.82 249.4,51.3 Q247.48,56.78 247.48,63.18 Q247.48,69.42 249.4,74.82 Q251.32,80.22 254.92,84.22 Q258.52,88.22 263.76,90.5 Q269,92.78 275.56,92.78 Q279.72,92.78 283.8,91.06 Q287.88,89.34 291.24,85.02 z" fill="#FFFFFF"/>
    <path d="M310.68,34.38 L310.68,91.5 L354.04,91.5 L354.04,80.94 L323.24,80.94 L323.24,66.94 L350.92,66.94 L350.92,57.18 L323.24,57.18 L323.24,44.94 L353.4,44.94 L353.4,34.38 z" fill="#FFFFFF"/>
  </g>
</svg>
